<svg version="1.1" viewBox="0.0 0.0 960.0 720.0" fill="none" stroke="none" stroke-linecap="square" stroke-miterlimit="10" xmlns:xlink="http://www.w3.org/1999/xlink" xmlns="http://www.w3.org/2000/svg"><clipPath id="g31147283879_4_12409.0"><path d="m0 0l960.0 0l0 720.0l-960.0 0l0 -720.0z" clip-rule="nonzero"/></clipPath><g clip-path="url(#g31147283879_4_12409.0)"><path fill="#ffffff" d="m0 0l960.0 0l0 720.0l-960.0 0z" fill-rule="evenodd"/><path fill="#86d2be" d="m932.29395 356.3613c12.007874 0 24.013123 -6.117096 33.146973 -18.347748l81.85303 -109.02965c-7.338623 -9.67955 118.15222 -251.3498 118.15222 -251.3498l-606.2362 0l37.414734 49.88852c19.146973 25.47618 44.2782 38.21427 69.4068 38.21427c25.131226 0 50.26245 -12.7380905 69.409424 -38.21427l1.7532959 -2.4461327c1.5958252 -2.0751896 3.671936 -3.1110344 5.7349243 -3.1110344c2.0656128 0 4.118103 1.0358448 5.6745605 3.1110344c3.0314941 4.2553616 3.0314941 11.061838 0 15.103735l-21.8609 29.143627c-14.278259 19.040642 -14.278259 49.9935 0 69.03415c7.1417236 9.522064 16.514404 14.281357 25.88977 14.281357c9.372681 0 18.747986 -4.7592926 25.887146 -14.281357l80.97632 -107.96231c1.7952881 -2.3936405 4.128662 -3.5904598 6.461975 -3.5904598c2.333313 0 4.666687 1.1968193 6.461914 3.5904598c3.5905762 4.783783 3.5905762 12.444134 0 17.231415l-33.188965 44.35585c-16.59314 22.018692 -16.59314 57.75534 0 79.88251c8.257202 11.009354 19.107605 16.514023 29.958008 16.514023c10.850403 0 21.700806 -5.504669 29.958008 -16.514023l8.057739 -10.743378c4.0682373 -5.4241943 9.333374 -8.136276 14.587952 -8.136276c5.257202 0 10.501282 2.712082 14.530151 8.136276c8.136475 10.743378 8.136475 27.974808 0 38.823166l-37.175842 49.67505c-18.34906 24.359863 -18.34906 63.928406 0 88.39325c9.13385 12.230652 21.1391 18.347748 33.146973 18.347748z" fill-rule="evenodd"/><path fill="#c5ebd8" d="m801.2572 119.53082c4.307129 0 7.737549 -4.6788025 7.737549 -10.424934c0 -5.7426453 -3.43042 -10.31646 -7.737549 -10.31646c-4.307068 0 -7.8189087 4.5738144 -7.8189087 10.31646c0 5.746132 3.5118408 10.424934 7.8189087 10.424934z" fill-rule="evenodd"/><path fill="#000000" fill-opacity="0.0" d="m1058.0945 107.72534l-129.00262 171.89072" fill-rule="evenodd"/><path stroke="#fba036" stroke-width="3.031496062992126" stroke-miterlimit="30.3957" stroke-linecap="round" d="m1058.0945 107.72534l-129.00262 171.89072" fill-rule="evenodd"/><path fill="#000000" fill-opacity="0.0" d="m906.32544 -118.415985l-115.43829 154.12738" fill-rule="evenodd"/><path stroke="#fba036" stroke-width="3.031496062992126" stroke-miterlimit="30.3957" stroke-linecap="round" d="m906.32544 -118.415985l-115.43829 154.12738" fill-rule="evenodd"/><path fill="#000000" fill-opacity="0.0" d="m1120.1365 168.50948l-115.59839 154.02238" fill-rule="evenodd"/><path stroke="#ffffff" stroke-width="3.031496062992126" stroke-miterlimit="30.3957" stroke-linecap="round" d="m1120.1365 168.50948l-115.59839 154.02238" fill-rule="evenodd"/><path fill="#c5ebd8" d="m959.61945 152.71985c11.246704 0 20.422546 -12.234177 20.422546 -27.232918c0 -15.103737 -9.175842 -27.334404 -20.422546 -27.334404c-11.3307495 0 -20.425232 12.230667 -20.425232 27.334404c0 14.998741 9.094482 27.232918 20.425232 27.232918z" fill-rule="evenodd"/><path fill="#c5ebd8" d="m919.8478 76.69025c2.8530273 0 5.7060547 -1.4627762 7.8582764 -4.388344c20.343811 -27.547867 73.71649 -99.346596 75.07349 -99.9835l1.7532959 -3.1915207l-127.40686 0l19.62732 26.165575c1.994751 2.6596012 1.994751 7.019947 0 9.679548c-4.7874146 6.2745585 -4.7874146 16.486027 0 22.869068c2.3516846 3.1915226 5.4435425 4.787283 8.545898 4.787283c3.102356 0 6.2126465 -1.5957603 8.606323 -4.787283l7.020996 -9.252611c1.0761108 -1.4907761 2.4934082 -2.236164 3.908142 -2.236164c1.4172974 0 2.8320312 0.74538803 3.908142 2.236164c2.2335815 2.8695698 2.2335815 7.5518665 0 10.421436l-16.753296 22.340649c-4.2283325 5.7426376 -4.2283325 15.208717 0 20.951355c2.1548462 2.9255676 5.0078735 4.388344 7.8582764 4.388344z" fill-rule="evenodd"/><path fill="#000000" fill-opacity="0.0" d="m780.8635 -84.70204l-144.32019 192.41864" fill-rule="evenodd"/><path stroke="#fba036" stroke-width="3.031496062992126" stroke-miterlimit="30.3957" stroke-linecap="round" d="m780.8635 -84.70204l-144.32019 192.41864" fill-rule="evenodd"/><path fill="#000000" fill-opacity="0.0" d="m1124.9186 -143.09428l-144.23877 192.42213" fill-rule="evenodd"/><path stroke="#fba036" stroke-width="3.031496062992126" stroke-miterlimit="30.3957" stroke-linecap="round" d="m1124.9186 -143.09428l-144.23877 192.42213" fill-rule="evenodd"/><path fill="#000000" fill-opacity="0.0" d="m643.45404 40.180225l-28.08136 37.549366" fill-rule="evenodd"/><path stroke="#fba036" stroke-width="3.031496062992126" stroke-miterlimit="30.3957" stroke-linecap="round" d="m643.45404 40.180225l-28.08136 37.549366" fill-rule="evenodd"/><path fill="#6582ed" d="m993.6046 352.41556c-2.647522 0 -4.765564 -3.0486145 -4.765564 -6.3539124c0 -3.6262512 2.118042 -6.450226 4.765564 -6.450226c2.6234741 0 4.741516 2.8239746 4.741516 6.450226c0 3.5299377 -2.118042 6.3539124 -4.741516 6.3539124zm0 1.6045227c3.2252197 0 5.9449463 -3.6262207 5.9449463 -7.958435c0 -4.3964233 -2.7197266 -8.022644 -5.9449463 -8.022644c-3.3214722 0 -5.968994 3.6262207 -5.968994 8.022644c0 4.3322144 2.647522 7.958435 5.968994 7.958435z" fill-rule="evenodd"/><path fill="#6582ed" d="m683.2576 107.63272c-2.647522 0 -4.765564 -2.8560562 -4.765564 -6.3539276c0 -3.5299606 2.118042 -6.3539276 4.765564 -6.3539276c2.7197876 0 4.8377686 2.823967 4.8377686 6.3539276c0 3.4978714 -2.117981 6.3539276 -4.8377686 6.3539276zm0 1.5724411c3.3214722 0 5.9449463 -3.4978714 5.9449463 -7.9263687c0 -4.4284973 -2.6234741 -7.9263687 -5.9449463 -7.9263687c-3.152954 0 -5.776428 3.4978714 -5.9448853 7.9263687c0 4.4284973 2.7197266 7.9263687 5.9448853 7.9263687z" fill-rule="evenodd"/><path fill="#6582ed" d="m596.3711 107.61617c-2.7197266 0 -4.8618164 -2.823967 -4.8618164 -6.3539276c0 -3.6262283 2.1420898 -6.4501953 4.8618164 -6.4501953c2.6234741 0 4.765564 2.823967 4.765564 6.4501953c0 3.5299606 -2.1420898 6.3539276 -4.765564 6.3539276zm0 1.6045303c3.2251587 0 5.9449463 -3.5299606 5.9449463 -7.958458c0 -4.3964005 -2.7197876 -7.926361 -5.9449463 -7.926361c-3.2492676 0 -5.8727417 3.5299606 -5.968994 7.926361c0 4.4284973 2.647522 7.958458 5.968994 7.958458z" fill-rule="evenodd"/><path fill="#6582ed" d="m866.4187 271.72662c-2.647522 0 -4.765564 -2.8239746 -4.765564 -6.3218384c0 -3.5299683 2.118042 -6.353943 4.765564 -6.353943c2.6234741 0 4.765564 2.8239746 4.765564 6.353943c0 3.4978638 -2.1420898 6.3218384 -4.765564 6.3218384zm0 1.6045227c3.3214722 0 5.9448853 -3.5299683 5.9448853 -7.926361c0 -4.4284973 -2.623413 -7.9584656 -5.9448853 -7.9584656c-3.152954 0 -5.8727417 3.5299683 -5.9449463 7.9584656c0 4.396393 2.6234741 7.926361 5.9449463 7.926361z" fill-rule="evenodd"/><path fill="#c5ebd8" d="m1038.9744 405.11035c10.529175 0 19.119629 -11.453308 19.119629 -25.49472c0 -14.139709 -8.590454 -25.589752 -19.119629 -25.589752c-10.607788 0 -19.122131 11.450043 -19.122131 25.589752c0 14.041412 8.514343 25.49472 19.122131 25.49472z" fill-rule="evenodd"/><path fill="#86d2be" d="m3.7874017 371.15033c-12.007874 0 -24.013123 6.1170654 -33.146984 18.347748l-81.85302 109.02963c7.338585 9.679565 -118.15222 251.3498 -118.15222 251.3498l606.2362 0l-37.414703 -49.88849c-19.146973 -25.476196 -44.27823 -38.214294 -69.40683 -38.214294c-25.131226 0 -50.262466 12.738098 -69.40944 38.214294l-1.7532806 2.446106c-1.5958099 2.0751953 -3.6719208 3.111023 -5.734909 3.111023c-2.065628 0 -4.1181183 -1.0358276 -5.6745453 -3.111023c-3.0314941 -4.255371 -3.0314941 -11.061829 0 -15.103699l21.860886 -29.143677c14.2782135 -19.04065 14.2782135 -49.99347 0 -69.03412c-7.1417236 -9.522095 -16.514435 -14.281372 -25.889755 -14.281372c-9.372711 0 -18.748032 4.7592773 -25.887146 14.281372l-80.97637 107.96228c-1.7952805 2.3936768 -4.1286087 3.590454 -6.4619446 3.590454c-2.3333359 0 -4.666664 -1.1967773 -6.461941 -3.590454c-3.5905533 -4.7837524 -3.5905533 -12.444092 0 -17.231384l33.188976 -44.355835c16.593178 -22.018738 16.593178 -57.75537 0 -79.88257c-8.257217 -11.009338 -19.107613 -16.513977 -29.958008 -16.513977c-10.850391 0 -21.700787 5.5046387 -29.958004 16.513977l-8.057743 10.743408c-4.068241 5.4241943 -9.333334 8.1362915 -14.587927 8.1362915c-5.2572174 0 -10.501312 -2.7120972 -14.530183 -8.1362915c-8.136483 -10.743408 -8.136483 -27.974792 0 -38.82318l37.175854 -49.67505c18.349083 -24.359833 18.349083 -63.928406 0 -88.39322c-9.133858 -12.230682 -21.139107 -18.347748 -33.14698 -18.347748z" fill-rule="evenodd"/><path fill="#c5ebd8" d="m134.82414 607.9808c-4.307083 0 -7.737526 4.678833 -7.737526 10.424988c0 5.7426147 3.4304428 10.316406 7.737526 10.316406c4.3070984 0 7.8189087 -4.5737915 7.8189087 -10.316406c0 -5.746155 -3.5118103 -10.424988 -7.8189087 -10.424988z" fill-rule="evenodd"/><path fill="#000000" fill-opacity="0.0" d="m-110.49606 635.2102l129.00262 -171.89072" fill-rule="evenodd"/><path stroke="#ffffff" stroke-width="3.031496062992126" stroke-miterlimit="30.3957" stroke-linecap="round" d="m-110.49606 635.2102l129.00262 -171.89072" fill-rule="evenodd"/><path fill="#000000" fill-opacity="0.0" d="m29.755905 845.9276l115.438324 -154.12738" fill-rule="evenodd"/><path stroke="#ffffff" stroke-width="3.031496062992126" stroke-miterlimit="30.3957" stroke-linecap="round" d="m29.755905 845.9276l115.438324 -154.12738" fill-rule="evenodd"/><path fill="#000000" fill-opacity="0.0" d="m-173.83989 670.9504l115.59842 -154.0224" fill-rule="evenodd"/><path stroke="#fba036" stroke-width="3.031496062992126" stroke-miterlimit="30.3957" stroke-linecap="round" d="m-173.83989 670.9504l115.59842 -154.0224" fill-rule="evenodd"/><path fill="#c5ebd8" d="m-23.538057 574.79175c-11.246721 0 -20.422571 12.234192 -20.422571 27.232971c0 15.103699 9.17585 27.33435 20.422571 27.33435c11.3307085 0 20.425196 -12.230652 20.425196 -27.33435c0 -14.998779 -9.094488 -27.232971 -20.425196 -27.232971z" fill-rule="evenodd"/><path fill="#86d2be" d="m384.0525 671.05536c30.955383 0 56.083984 33.402466 56.083984 74.78027c0 41.269287 -25.128601 74.668274 -56.083984 74.668274c-30.874023 0 -56.00525 -33.398987 -56.00525 -74.668274c0 -41.272827 24.97113 -74.78027 56.00525 -74.78027zm0 -18.186768c-38.532806 0 -69.805786 41.696228 -69.805786 93.07202c0 51.270813 31.27298 93.07202 69.805786 93.07202c38.532806 0 69.805786 -41.80121 69.805786 -93.07202c0 -51.375793 -31.27298 -93.07202 -69.805786 -93.07202z" fill-rule="evenodd"/><path fill="#000000" fill-opacity="0.0" d="m201.35957 766.25507l144.3202 -192.41864" fill-rule="evenodd"/><path stroke="#fba036" stroke-width="3.031496062992126" stroke-miterlimit="30.3957" stroke-linecap="round" d="m201.35957 766.25507l144.3202 -192.41864" fill-rule="evenodd"/><path fill="#000000" fill-opacity="0.0" d="m-188.83727 870.6059l144.23883 -192.42212" fill-rule="evenodd"/><path stroke="#fba036" stroke-width="3.031496062992126" stroke-miterlimit="30.3957" stroke-linecap="round" d="m-188.83727 870.6059l144.23883 -192.42212" fill-rule="evenodd"/><path fill="#000000" fill-opacity="0.0" d="m292.6273 687.3314l28.08136 -37.549377" fill-rule="evenodd"/><path stroke="#fba036" stroke-width="3.031496062992126" stroke-miterlimit="30.3957" stroke-linecap="round" d="m292.6273 687.3314l28.08136 -37.549377" fill-rule="evenodd"/><path fill="#6582ed" d="m199.88757 583.86475c-2.6475372 0 -4.765564 -2.856018 -4.765564 -6.353882c0 -3.5299683 2.1180267 -6.353943 4.765564 -6.353943c2.7197418 0 4.8377686 2.8239746 4.8377686 6.353943c0 3.4978638 -2.1180267 6.353882 -4.8377686 6.353882zm0 1.5724487c3.321457 0 5.944931 -3.4978638 5.944931 -7.9263306c0 -4.428528 -2.6234741 -7.9263916 -5.944931 -7.9263916c-3.1529694 0 -5.7764435 3.4978638 -5.944916 7.9263916c0 4.428467 2.7197418 7.9263306 5.944916 7.9263306z" fill-rule="evenodd"/><path fill="#6582ed" d="m120.27398 486.88126c-2.7197342 0 -4.8618317 -2.823944 -4.8618317 -6.3539124c0 -3.6262207 2.1420975 -6.4501953 4.8618317 -6.4501953c2.6234741 0 4.765564 2.8239746 4.765564 6.4501953c0 3.5299683 -2.1420898 6.3539124 -4.765564 6.3539124zm0 1.6045532c3.2251816 0 5.9449234 -3.5299683 5.9449234 -7.9584656c0 -4.396393 -2.7197418 -7.926361 -5.9449234 -7.926361c-3.2492447 0 -5.872711 3.5299683 -5.9689865 7.926361c0 4.4284973 2.6475372 7.9584656 5.9689865 7.9584656z" fill-rule="evenodd"/><path fill="#6582ed" d="m390.3216 650.9917c-2.6475525 0 -4.765564 -2.8239746 -4.765564 -6.3218384c0 -3.5299683 2.1180115 -6.353943 4.765564 -6.353943c2.6234436 0 4.765564 2.8239746 4.765564 6.353943c0 3.4978638 -2.1421204 6.3218384 -4.765564 6.3218384zm0 1.6045532c3.3214417 0 5.944916 -3.5299683 5.944916 -7.9263916c0 -4.428467 -2.6234741 -7.958435 -5.944916 -7.958435c-3.1529846 0 -5.8727417 3.5299683 -5.9449463 7.958435c0 4.3964233 2.6234741 7.9263916 5.9449463 7.9263916z" fill-rule="evenodd"/><path fill="#000000" fill-opacity="0.0" d="m83.60627 196.11942l792.7874 0l0 234.4252l-792.7874 0z" fill-rule="evenodd"/><path fill="#263238" d="m308.24313 299.3789l-20.546875 0l0 -7.171875q0 -6.796875 -0.59375 -8.5q-0.578125 -1.703125 -2.78125 -1.703125q-1.90625 0 -2.59375 1.46875q-0.671875 1.453125 -0.671875 7.515625l0 37.9375q0 5.3125 0.671875 7.0q0.6875 1.6875 2.734375 1.6875q2.25 0 3.046875 -1.90625q0.8125 -1.90625 0.8125 -7.421875l0 -9.375l-4.140625 0l0 -12.015625l24.0625 0l0 42.4375l-12.9375 0l-1.90625 -5.671875q-2.09375 3.671875 -5.296875 5.5q-3.1875 1.828125 -7.546875 1.828125q-5.171875 0 -9.6875 -2.515625q-4.515625 -2.515625 -6.859375 -6.21875q-2.34375 -3.71875 -2.9375 -7.796875q-0.578125 -4.078125 -0.578125 -12.21875l0 -23.5q0 -11.328125 1.21875 -16.453125q1.21875 -5.125 7.0 -9.390625q5.796875 -4.28125 14.96875 -4.28125q9.046875 0 15.0 3.71875q5.953125 3.703125 7.75 8.8125q1.8125 5.09375 1.8125 14.8125l0 3.421875zm25.597656 -29.09375l14.546875 0q14.546875 0 19.6875 1.125q5.15625 1.109375 8.40625 5.734375q3.25 4.609375 3.25 14.71875q0 9.21875 -2.296875 12.40625q-2.296875 3.171875 -9.03125 3.796875q6.109375 1.515625 8.203125 4.0625q2.09375 2.53125 2.609375 4.65625q0.515625 2.125 0.515625 11.703125l0 20.84375l-19.09375 0l0 -26.265625q0 -6.359375 -1.0 -7.859375q-1.0 -1.515625 -5.25 -1.515625l0 35.640625l-20.546875 0l0 -79.046875zm20.546875 13.515625l0 17.578125q3.46875 0 4.859375 -0.953125q1.390625 -0.953125 1.390625 -6.171875l0 -4.34375q0 -3.765625 -1.34375 -4.9375q-1.34375 -1.171875 -4.90625 -1.171875zm97.90625 32.765625q0 11.921875 -0.5625 16.875q-0.5625 4.953125 -3.515625 9.0625q-2.953125 4.09375 -7.984375 6.296875q-5.03125 2.1875 -11.71875 2.1875q-6.34375 0 -11.40625 -2.0625q-5.046875 -2.078125 -8.125 -6.234375q-3.078125 -4.15625 -3.671875 -9.03125q-0.578125 -4.890625 -0.578125 -17.09375l0 -13.53125q0 -11.90625 0.5625 -16.859375q0.5625 -4.953125 3.515625 -9.046875q2.953125 -4.109375 7.984375 -6.3125q5.03125 -2.203125 11.71875 -2.203125q6.34375 0 11.390625 2.078125q5.0625 2.078125 8.140625 6.234375q3.078125 4.140625 3.65625 9.03125q0.59375 4.875 0.59375 17.078125l0 13.53125zm-20.5625 -25.96875q0 -5.53125 -0.609375 -7.0625q-0.609375 -1.53125 -2.515625 -1.53125q-1.609375 0 -2.46875 1.25q-0.84375 1.234375 -0.84375 7.34375l0 36.90625q0 6.890625 0.5625 8.5q0.5625 1.609375 2.609375 1.609375q2.09375 0 2.671875 -1.859375q0.59375 -1.859375 0.59375 -8.828125l0 -36.328125zm92.578156 -20.3125l0 52.828125q0 8.984375 -0.59375 12.625q-0.578125 3.625 -3.46875 7.46875q-2.875 3.828125 -7.59375 5.8125q-4.7031555 1.96875 -11.0937805 1.96875q-7.078125 0 -12.5 -2.34375q-5.421875 -2.34375 -8.109375 -6.09375q-2.6875 -3.765625 -3.171875 -7.9375q-0.484375 -4.171875 -0.484375 -17.5625l0 -46.765625l20.546875 0l0 59.265625q0 5.1875 0.5625 6.625q0.5625 1.4375 2.28125 1.4375q1.953125 0 2.515625 -1.578125q0.5625 -1.59375 0.5625 -7.5l0 -58.25l20.546906 0zm25.595703 0l20.703125 0q8.390625 0 12.90625 1.3125q4.515625 1.3125 6.78125 3.8125q2.28125 2.484375 3.078125 6.03125q0.8125 3.53125 0.8125 10.953125l0 6.890625q0 7.5625 -1.5625 11.03125q-1.5625 3.46875 -5.734375 5.328125q-4.171875 1.84375 -10.921875 1.84375l-5.515625 0l0 31.84375l-20.546875 0l0 -79.046875zm20.546875 13.515625l0 20.125q0.875 0.046875 1.515625 0.046875q2.828125 0 3.921875 -1.390625q1.109375 -1.390625 1.109375 -5.796875l0 -6.484375q0 -4.0625 -1.28125 -5.28125q-1.265625 -1.21875 -5.265625 -1.21875zm81.935486 44.53125l19.734375 0q0 5.515625 0.140625 6.96875q0.140625 1.4375 1.1875 2.421875q1.0625 0.96875 2.859375 0.96875q1.515625 0 2.484375 -0.921875q0.984375 -0.9375 1.109375 -2.40625q0.125 -1.46875 0.125 -5.90625l0 -12.59375q-1.46875 3.171875 -4.40625 4.765625q-2.921875 1.578125 -7.265625 1.578125q-5.421875 0 -9.578125 -2.921875q-4.140625 -2.9375 -5.265625 -7.03125q-1.125 -4.109375 -1.125 -11.09375l0 -6.296875q0 -8.296875 0.65625 -12.34375q0.65625 -4.0625 3.390625 -7.5q2.734375 -3.453125 7.5625 -5.34375q4.84375 -1.90625 11.25 -1.90625q7.90625 0 12.984375 2.203125q5.078125 2.1875 7.859375 6.3125q2.78125 4.125 3.21875 8.671875q0.4375 4.53125 0.4375 17.578125l0 10.984375q0 14.109375 -0.390625 18.875q-0.390625 4.75 -3.390625 9.0q-3.0 4.25 -8.125 6.375q-5.125 2.125 -11.875 2.125q-8.34375 0 -13.640625 -2.6875q-5.296875 -2.6875 -7.625 -7.5625q-2.3125 -4.890625 -2.3125 -12.3125zm19.734375 -24.65625q0 4.984375 1.28125 6.15625q1.296875 1.171875 2.671875 1.171875q2.046875 0 3.0 -1.484375q0.953125 -1.5 0.953125 -5.84375l0 -14.3125q0 -5.21875 -0.90625 -6.828125q-0.90625 -1.609375 -3.0 -1.609375q-1.265625 0 -2.640625 1.25q-1.359375 1.234375 -1.359375 6.703125l0 14.796875z" fill-rule="nonzero"/><path fill="#fcca46" d="m260.72702 404.91602l438.89767 0l0 66.61417l-438.89767 0z" fill-rule="evenodd"/><path fill="#263238" d="m336.03778 447.62933q-2.578125 0 -4.484375 -0.9375q-1.890625 -0.9375 -2.921875 -2.59375q-1.03125 -1.671875 -1.03125 -3.875l2.9375 0q0 1.375 0.625 2.53125q0.640625 1.140625 1.84375 1.828125q1.21875 0.671875 3.03125 0.671875q1.5625 0 2.671875 -0.515625q1.125 -0.515625 1.703125 -1.40625q0.578125 -0.90625 0.578125 -2.046875q0 -1.359375 -0.578125 -2.203125q-0.578125 -0.859375 -1.578125 -1.390625q-1.0 -0.53125 -2.328125 -0.9375q-1.3125 -0.421875 -2.734375 -0.921875q-2.765625 -0.9375 -4.078125 -2.3125q-1.296875 -1.390625 -1.296875 -3.625q0 -1.90625 0.875 -3.328125q0.890625 -1.4375 2.53125 -2.25q1.65625 -0.828125 3.921875 -0.828125q2.234375 0 3.890625 0.84375q1.65625 0.828125 2.578125 2.28125q0.9375 1.453125 0.9375 3.34375l-2.9375 0q0 -0.96875 -0.5 -1.890625q-0.5 -0.9375 -1.515625 -1.546875q-1.015625 -0.625 -2.546875 -0.625q-1.265625 -0.03125 -2.25 0.421875q-0.984375 0.4375 -1.53125 1.28125q-0.546875 0.828125 -0.546875 2.03125q0 1.125 0.484375 1.828125q0.484375 0.703125 1.390625 1.1875q0.921875 0.484375 2.15625 0.890625q1.234375 0.390625 2.734375 0.890625q1.703125 0.5625 3.015625 1.390625q1.3125 0.8125 2.0625 2.078125q0.75 1.265625 0.75 3.234375q0 1.65625 -0.890625 3.140625q-0.875 1.484375 -2.609375 2.421875q-1.734375 0.9375 -4.359375 0.9375zm17.830292 0q-1.9375 0 -3.390625 -0.765625q-1.453125 -0.78125 -2.234375 -2.375q-0.78125 -1.59375 -0.78125 -4.0l0 -10.0625l2.796875 0l0 9.765625q0 2.5 1.09375 3.765625q1.109375 1.265625 3.109375 1.265625q1.40625 0 2.53125 -0.671875q1.140625 -0.6875 1.78125 -1.96875q0.65625 -1.296875 0.65625 -3.1875l0 -8.96875l2.796875 0l0 16.796875l-2.53125 0l-0.171875 -2.9375l0 0q-0.765625 1.578125 -2.265625 2.46875q-1.5 0.875 -3.390625 0.875zm12.987579 -0.40625l0 -16.796875l2.53125 0l0.140625 2.9375l0 0q0.796875 -1.578125 2.28125 -2.453125q1.484375 -0.890625 3.390625 -0.890625q1.953125 0 3.390625 0.796875q1.4375 0.78125 2.234375 2.359375q0.796875 1.578125 0.796875 4.015625l0 10.03125l-2.796875 0l0 -9.734375q0 -2.53125 -1.125 -3.796875q-1.109375 -1.265625 -3.140625 -1.265625q-1.40625 0 -2.5 0.6875q-1.09375 0.671875 -1.75 1.96875q-0.65625 1.28125 -0.65625 3.171875l0 8.96875l-2.796875 0zm28.16745 0l0 -23.328125l2.796875 0l0 21.09375l10.875 0l0 2.234375l-13.671875 0zm17.657654 0l0 -16.796875l2.8125 0l0 16.796875l-2.8125 0zm1.40625 -20.359375q-0.828125 0 -1.390625 -0.546875q-0.546875 -0.5625 -0.546875 -1.390625q0 -0.828125 0.546875 -1.34375q0.5625 -0.515625 1.390625 -0.515625q0.796875 0 1.359375 0.515625q0.578125 0.515625 0.578125 1.34375q0 0.828125 -0.578125 1.390625q-0.5625 0.546875 -1.359375 0.546875zm7.2643433 20.359375l0 -19.390625q0 -1.609375 0.53125 -2.625q0.53125 -1.015625 1.578125 -1.5q1.0625 -0.484375 2.59375 -0.484375l1.890625 0l0 2.40625l-1.453125 0q-1.234375 0 -1.796875 0.5q-0.546875 0.5 -0.546875 1.765625l0 19.328125l-2.796875 0zm-2.5625 -14.4375l0 -2.359375l9.59375 0l0 2.359375l-9.59375 0zm19.664886 14.84375q-2.34375 0 -4.171875 -1.09375q-1.828125 -1.109375 -2.859375 -3.09375q-1.03125 -1.984375 -1.03125 -4.625q0 -2.65625 1.015625 -4.625q1.015625 -1.96875 2.859375 -3.0625q1.84375 -1.109375 4.25 -1.109375q2.46875 0 4.203125 1.109375q1.734375 1.09375 2.640625 2.875q0.921875 1.78125 0.921875 3.921875q0 0.328125 0 0.703125q0 0.359375 -0.03125 0.828125l-13.765625 0l0 -2.171875l11.03125 0q-0.09375 -2.296875 -1.515625 -3.59375q-1.421875 -1.296875 -3.546875 -1.296875q-1.40625 0 -2.640625 0.65625q-1.234375 0.640625 -1.96875 1.890625q-0.734375 1.25 -0.734375 3.109375l0 0.9375q0 2.0625 0.75 3.46875q0.75 1.40625 1.96875 2.109375q1.21875 0.6875 2.625 0.6875q1.765625 0 2.90625 -0.78125q1.15625 -0.78125 1.6875 -2.15625l2.765625 0q-0.4375 1.546875 -1.4375 2.734375q-1.0 1.171875 -2.484375 1.875q-1.46875 0.703125 -3.4375 0.703125zm20.592468 -0.40625l0 -23.328125l6.859375 0q4.109375 0 6.765625 1.421875q2.671875 1.40625 3.953125 4.03125q1.28125 2.609375 1.28125 6.28125q0 3.59375 -1.28125 6.203125q-1.28125 2.59375 -3.953125 4.0q-2.65625 1.390625 -6.765625 1.390625l-6.859375 0zm2.796875 -2.328125l4.0 0q3.40625 0 5.421875 -1.109375q2.015625 -1.125 2.875 -3.203125q0.875 -2.09375 0.875 -4.953125q0 -2.9375 -0.875 -5.03125q-0.859375 -2.109375 -2.875 -3.234375q-2.015625 -1.140625 -5.421875 -1.140625l-4.0 0l0 18.671875zm27.335968 2.734375q-2.34375 0 -4.171875 -1.09375q-1.828125 -1.109375 -2.859375 -3.09375q-1.03125 -1.984375 -1.03125 -4.625q0 -2.65625 1.015625 -4.625q1.015625 -1.96875 2.859375 -3.0625q1.84375 -1.109375 4.25 -1.109375q2.46875 0 4.203125 1.109375q1.734375 1.09375 2.640625 2.875q0.921875 1.78125 0.921875 3.921875q0 0.328125 0 0.703125q0 0.359375 -0.03125 0.828125l-13.765625 0l0 -2.171875l11.03125 0q-0.09375 -2.296875 -1.515625 -3.59375q-1.421875 -1.296875 -3.546875 -1.296875q-1.40625 0 -2.640625 0.65625q-1.234375 0.640625 -1.96875 1.890625q-0.734375 1.25 -0.734375 3.109375l0 0.9375q0 2.0625 0.75 3.46875q0.75 1.40625 1.96875 2.109375q1.21875 0.6875 2.625 0.6875q1.765625 0 2.90625 -0.78125q1.15625 -0.78125 1.6875 -2.15625l2.765625 0q-0.4375 1.546875 -1.4375 2.734375q-1.0 1.171875 -2.484375 1.875q-1.46875 0.703125 -3.4375 0.703125zm17.899078 0q-2.078125 0 -3.640625 -0.703125q-1.5625 -0.703125 -2.484375 -1.953125q-0.90625 -1.25 -1.109375 -2.953125l2.859375 0q0.171875 0.875 0.703125 1.609375q0.53125 0.734375 1.4375 1.1875q0.921875 0.4375 2.265625 0.4375q1.15625 0 1.921875 -0.34375q0.765625 -0.359375 1.15625 -0.953125q0.390625 -0.59375 0.390625 -1.296875q0 -1.03125 -0.484375 -1.5625q-0.484375 -0.546875 -1.421875 -0.859375q-0.9375 -0.3125 -2.265625 -0.546875q-1.09375 -0.203125 -2.171875 -0.53125q-1.0625 -0.34375 -1.90625 -0.890625q-0.828125 -0.546875 -1.3125 -1.34375q-0.46875 -0.796875 -0.46875 -1.96875q0 -1.4375 0.734375 -2.546875q0.75 -1.125 2.109375 -1.75q1.375 -0.640625 3.21875 -0.640625q2.6875 0 4.359375 1.3125q1.671875 1.296875 1.96875 3.765625l-2.765625 0q-0.171875 -1.265625 -1.09375 -1.984375q-0.90625 -0.71875 -2.5 -0.71875q-1.578125 0 -2.390625 0.640625q-0.8125 0.625 -0.8125 1.65625q0 0.671875 0.4375 1.1875q0.453125 0.515625 1.359375 0.890625q0.90625 0.359375 2.171875 0.59375q1.65625 0.296875 3.015625 0.796875q1.375 0.5 2.21875 1.484375q0.859375 0.984375 0.859375 2.78125q0 1.5625 -0.78125 2.734375q-0.78125 1.15625 -2.21875 1.8125q-1.4375 0.65625 -3.359375 0.65625zm10.652588 -0.40625l0 -16.796875l2.8125 0l0 16.796875l-2.8125 0zm1.40625 -20.359375q-0.828125 0 -1.390625 -0.546875q-0.546875 -0.5625 -0.546875 -1.390625q0 -0.828125 0.546875 -1.34375q0.5625 -0.515625 1.390625 -0.515625q0.796875 0 1.359375 0.515625q0.578125 0.515625 0.578125 1.34375q0 0.828125 -0.578125 1.390625q-0.5625 0.546875 -1.359375 0.546875zm12.967468 28.09375q-2.265625 0 -4.015625 -0.59375q-1.75 -0.578125 -2.71875 -1.78125q-0.96875 -1.1875 -0.96875 -2.953125q0 -0.765625 0.3125 -1.640625q0.328125 -0.859375 1.109375 -1.6875q0.78125 -0.84375 2.21875 -1.515625l1.921875 1.140625q-1.765625 0.734375 -2.296875 1.671875q-0.53125 0.953125 -0.53125 1.765625q0 1.09375 0.625 1.828125q0.640625 0.734375 1.765625 1.09375q1.140625 0.375 2.578125 0.375q1.421875 0 2.453125 -0.421875q1.046875 -0.421875 1.609375 -1.140625q0.5625 -0.703125 0.5625 -1.703125q0 -1.171875 -0.875 -1.953125q-0.859375 -0.78125 -3.28125 -0.921875q-1.96875 -0.125 -3.3125 -0.359375q-1.328125 -0.234375 -2.203125 -0.546875q-0.859375 -0.328125 -1.4375 -0.71875q-0.578125 -0.40625 -1.046875 -0.84375l0 -0.765625l3.234375 -3.1875l2.421875 0.859375l-3.328125 3.0l0.4375 -1.171875q0.359375 0.265625 0.6875 0.5q0.34375 0.234375 0.90625 0.40625q0.5625 0.171875 1.578125 0.3125q1.03125 0.125 2.6875 0.25q2.296875 0.171875 3.671875 0.8125q1.390625 0.625 2.0 1.6875q0.625 1.0625 0.625 2.53125q0 1.4375 -0.78125 2.71875q-0.78125 1.28125 -2.421875 2.109375q-1.625 0.84375 -4.1875 0.84375zm-0.03125 -13.0q-2.109375 0 -3.59375 -0.796875q-1.484375 -0.796875 -2.25 -2.140625q-0.765625 -1.359375 -0.765625 -3.03125q0 -1.65625 0.78125 -2.984375q0.796875 -1.34375 2.25 -2.15625q1.46875 -0.828125 3.578125 -0.828125q2.09375 0 3.5625 0.828125q1.46875 0.8125 2.234375 2.15625q0.765625 1.328125 0.765625 2.984375q0 1.671875 -0.765625 3.03125q-0.765625 1.34375 -2.234375 2.140625q-1.46875 0.796875 -3.5625 0.796875zm0 -2.296875q1.796875 0 2.828125 -0.9375q1.03125 -0.9375 1.03125 -2.734375q0 -1.765625 -1.03125 -2.6875q-1.03125 -0.9375 -2.828125 -0.9375q-1.765625 0 -2.859375 0.9375q-1.078125 0.921875 -1.078125 2.6875q0 1.796875 1.0625 2.734375q1.0625 0.9375 2.875 0.9375zm2.734375 -6.875l-0.84375 -2.359375l6.875 0l0 2.09375l-6.03125 0.265625zm9.253296 14.4375l0 -16.796875l2.53125 0l0.140625 2.9375l0 0q0.796875 -1.578125 2.28125 -2.453125q1.484375 -0.890625 3.390625 -0.890625q1.953125 0 3.390625 0.796875q1.4375 0.78125 2.234375 2.359375q0.796875 1.578125 0.796875 4.015625l0 10.03125l-2.796875 0l0 -9.734375q0 -2.53125 -1.125 -3.796875q-1.109375 -1.265625 -3.140625 -1.265625q-1.40625 0 -2.5 0.6875q-1.09375 0.671875 -1.75 1.96875q-0.65625 1.28125 -0.65625 3.171875l0 8.96875l-2.796875 0zm33.370605 0.40625q-2.109375 0 -3.625 -0.796875q-1.515625 -0.8125 -2.328125 -2.3125q-0.8125 -1.5 -0.8125 -3.5625l2.828125 0q0 1.171875 0.375 2.125q0.390625 0.9375 1.234375 1.5q0.859375 0.546875 2.296875 0.546875q1.390625 0 2.203125 -0.53125q0.828125 -0.546875 1.171875 -1.453125q0.34375 -0.921875 0.34375 -2.09375l0 -17.15625l2.8125 0l0 17.15625q0 3.140625 -1.71875 4.859375q-1.71875 1.71875 -4.78125 1.71875zm16.791077 0q-2.03125 0 -3.40625 -0.71875q-1.359375 -0.71875 -2.03125 -1.90625q-0.65625 -1.1875 -0.65625 -2.578125q0 -1.703125 0.875 -2.875q0.890625 -1.1875 2.5 -1.796875q1.625 -0.625 3.828125 -0.625l4.421875 0q0 -1.578125 -0.484375 -2.625q-0.484375 -1.046875 -1.40625 -1.578125q-0.90625 -0.53125 -2.265625 -0.53125q-1.609375 0 -2.78125 0.796875q-1.15625 0.796875 -1.421875 2.359375l-2.875 0q0.203125 -1.796875 1.21875 -3.0q1.015625 -1.21875 2.578125 -1.875q1.578125 -0.65625 3.28125 -0.65625q2.328125 0 3.875 0.859375q1.546875 0.84375 2.3125 2.359375q0.765625 1.515625 0.765625 3.59375l0 10.390625l-2.5 0l-0.15625 -2.96875l0 0q-0.34375 0.703125 -0.859375 1.328125q-0.515625 0.609375 -1.203125 1.0625q-0.671875 0.4375 -1.578125 0.703125q-0.890625 0.28125 -2.03125 0.28125zm0.4375 -2.375q1.171875 0 2.109375 -0.484375q0.953125 -0.484375 1.609375 -1.328125q0.671875 -0.84375 1.015625 -1.875q0.359375 -1.046875 0.359375 -2.171875l0 -0.109375l-4.203125 0q-1.625 0 -2.625 0.390625q-1.0 0.375 -1.4375 1.0625q-0.4375 0.6875 -0.4375 1.546875q0 0.90625 0.421875 1.578125q0.421875 0.65625 1.234375 1.03125q0.8125 0.359375 1.953125 0.359375zm12.224243 1.96875l0 -16.796875l2.53125 0l0.171875 2.40625l0 0q0.796875 -1.3125 2.140625 -2.0625q1.359375 -0.75 2.953125 -0.75q1.3125 0 2.359375 0.359375q1.046875 0.34375 1.859375 1.0625q0.828125 0.71875 1.28125 1.8125l0 0q0.875 -1.53125 2.40625 -2.375q1.53125 -0.859375 3.234375 -0.859375q1.96875 0 3.390625 0.796875q1.4375 0.78125 2.234375 2.359375q0.8125 1.578125 0.8125 4.015625l0 10.03125l-2.78125 0l0 -9.734375q0 -2.53125 -1.03125 -3.796875q-1.03125 -1.265625 -2.921875 -1.265625q-1.3125 0 -2.34375 0.6875q-1.03125 0.671875 -1.640625 1.984375q-0.59375 1.296875 -0.59375 3.1875l0 8.9375l-2.796875 0l0 -9.734375q0 -2.53125 -1.03125 -3.796875q-1.03125 -1.265625 -2.890625 -1.265625q-1.265625 0 -2.3125 0.6875q-1.03125 0.671875 -1.640625 1.984375q-0.59375 1.296875 -0.59375 3.1875l0 8.9375l-2.796875 0z" fill-rule="nonzero"/><path fill="#9ab9ff" d="m8.893722 -45.013996c-0.31384277 0.88481903 -26.436893 104.895065 -25.611015 105.18798l51.360943 77.29988c4.882534 7.2436523 15.274086 10.929291 23.629814 8.380936c4.1324844 -1.290268 6.8975334 -3.9007568 8.028973 -7.090637c1.1314468 -3.1898804 0.6292801 -6.9591675 -1.7666092 -10.564896l-27.560219 -41.372765c-0.823349 -1.1834335 -0.988472 -2.465454 -0.59978867 -3.561264c0.3878746 -1.093544 1.3295593 -2.000885 2.727478 -2.437355c2.79282 -0.8740082 6.4714584 0.43071747 8.092403 2.8701859l9.336803 13.947159c2.634285 3.961029 8.243 5.950302 12.781452 4.5332794c2.2582703 -0.6728058 3.7653198 -2.0794678 4.3769073 -3.8037338c0.61159515 -1.724266 0.32772827 -3.766121 -1.0010834 -5.7137375l-25.08274 -37.85303c-3.501686 -5.2699127 -4.2245903 -10.7981415 -2.569271 -15.464996c1.0244141 -2.8881378 2.9608269 -5.4477043 5.713478 -7.4087143c1.7582626 -1.1643162 3.6753082 -2.1905785 6.0038986 -2.9176254l1.0735397 -0.3957119l-48.93255 -73.641754c0 0 -8.049011E-4 0.0022697449 -0.0024137497 0.00680542z" fill-rule="evenodd"/><path fill="#9ab9ff" d="m6.842017 -39.047173c-0.2550974 0.71920013 -0.35029268 1.1988258 -0.23926926 1.3659134c1.0374818 1.4534988 49.96786 66.63248 49.96786 66.63248l6.637253 -2.0723228c5.1751633 -1.7045898 8.609444 -5.030422 10.040245 -9.064289c1.5177155 -4.2788935 0.7770157 -9.353682 -2.5399933 -14.126437l-49.039722 -70.42062c0 0 -12.749381 21.829601 -14.826375 27.685287z" fill-rule="evenodd"/><path fill="#000000" fill-opacity="0.0" d="m1053.7919 639.4387l-120.77222 -160.91953" fill-rule="evenodd"/><path stroke="#86d2be" stroke-width="3.031496062992126" stroke-miterlimit="30.3957" stroke-linecap="round" d="m1053.7919 639.4387l-120.77222 -160.91953" fill-rule="evenodd"/><path fill="#9ab9ff" d="m924.5831 540.3564c10.529175 0 19.119629 11.453308 19.119629 25.49469c0 14.1397705 -8.590454 25.589783 -19.119629 25.589783c-10.607788 0 -19.12207 -11.450012 -19.12207 -25.589783c0 -14.041382 8.514282 -25.49469 19.12207 -25.49469z" fill-rule="evenodd"/><path fill="#9ab9ff" d="m904.9388 625.18243c2.6709595 0 5.34198 1.3693848 7.3569336 4.1082153c19.045837 25.789612 69.01337 93.00568 70.28375 93.60193l1.6414185 2.987793l-119.27826 0l18.375061 -24.495544c1.8674927 -2.4898071 1.8674927 -6.5718384 0 -9.061707c-4.4819336 -5.8740845 -4.4819336 -15.433777 0 -21.409424c2.2017212 -2.987793 5.0963135 -4.4816895 8.000732 -4.4816895c2.904419 0 5.816223 1.4938965 8.05719 4.4816895l6.573059 8.662048c1.0075073 1.3956299 2.3343506 2.0934448 3.6588135 2.0934448c1.3269043 0 2.6513672 -0.69781494 3.6588135 -2.0934448c2.0910645 -2.6864014 2.0910645 -7.069824 0 -9.756287l-15.684448 -20.914673c-3.9585571 -5.3761597 -3.9585571 -14.238037 0 -19.614136c2.017395 -2.7388306 4.6884155 -4.1082153 7.3569336 -4.1082153z" fill-rule="evenodd"/><path fill="#000000" fill-opacity="0.0" d="m185.48534 107.90721l-71.27576 -84.59477" fill-rule="evenodd"/><path stroke="#86d2be" stroke-width="3.031496062992126" stroke-miterlimit="30.3957" stroke-linecap="round" d="m185.48534 107.90721l-71.27576 -84.59477" fill-rule="evenodd"/><path fill="#000000" fill-opacity="0.0" d="m178.03171 36.64233l-56.372566 -72.51755" fill-rule="evenodd"/><path stroke="#6582ed" stroke-width="3.031496062992126" stroke-miterlimit="30.3957" stroke-linecap="round" d="m178.03171 36.64233l-56.372566 -72.51755" fill-rule="evenodd"/><path fill="#6582ed" d="m92.10587 47.983734c-2.7197342 0 -4.8618317 2.823967 -4.8618317 6.3539276c0 3.626236 2.1420975 6.450203 4.8618317 6.450203c2.6234665 0 4.765564 -2.823967 4.765564 -6.450203c0 -3.5299606 -2.1420975 -6.3539276 -4.765564 -6.3539276zm0 -1.6045265c3.2251816 0 5.9449234 3.5299606 5.9449234 7.958454c0 4.396408 -2.7197418 7.9263687 -5.9449234 7.9263687c-3.2492447 0 -5.872711 -3.5299606 -5.9689865 -7.9263687c0 -4.4284935 2.6475372 -7.958454 5.9689865 -7.958454z" fill-rule="evenodd"/></g></svg>